<mxfile host="app.diagrams.net" modified="2024-01-17T02:28:53.992Z" agent="Mozilla/5.0 (Windows NT 10.0; Win64; x64) AppleWebKit/537.36 (KHTML, like Gecko) Chrome/120.0.0.0 Safari/537.36" etag="NvvKPWuycIKwF2VCyIw-" version="22.1.18" type="github">
  <diagram name="Page-1" id="ZD00cTLUzi691DpJYVTJ">
    <mxGraphModel dx="1050" dy="522" grid="1" gridSize="10" guides="1" tooltips="1" connect="1" arrows="1" fold="1" page="1" pageScale="1" pageWidth="850" pageHeight="1100" math="0" shadow="0">
      <root>
        <mxCell id="0" />
        <mxCell id="1" parent="0" />
        <mxCell id="soDfp3RJkLPu1pMC7LP1-41" value="&lt;h1&gt;&lt;span style=&quot;background-color: initial;&quot;&gt;Magnus Structure Graph&lt;/span&gt;&lt;br&gt;&lt;/h1&gt;" style="text;html=1;strokeColor=none;fillColor=none;spacing=5;spacingTop=-20;whiteSpace=wrap;overflow=hidden;rounded=0;" vertex="1" parent="1">
          <mxGeometry x="50" y="30" width="290" height="40" as="geometry" />
        </mxCell>
        <mxCell id="soDfp3RJkLPu1pMC7LP1-55" value="General Management" style="swimlane;startSize=20;horizontal=1;containerType=tree;" vertex="1" parent="1">
          <mxGeometry x="30" y="90" width="400" height="210" as="geometry" />
        </mxCell>
        <mxCell id="soDfp3RJkLPu1pMC7LP1-56" value="" style="edgeStyle=elbowEdgeStyle;elbow=vertical;sourcePerimeterSpacing=0;targetPerimeterSpacing=0;startArrow=none;endArrow=none;rounded=0;curved=0;" edge="1" parent="soDfp3RJkLPu1pMC7LP1-55" source="soDfp3RJkLPu1pMC7LP1-57" target="soDfp3RJkLPu1pMC7LP1-58">
          <mxGeometry relative="1" as="geometry" />
        </mxCell>
        <mxCell id="soDfp3RJkLPu1pMC7LP1-57" value="Board of Directors" style="whiteSpace=wrap;html=1;treeFolding=1;treeMoving=1;newEdgeStyle={&quot;edgeStyle&quot;:&quot;elbowEdgeStyle&quot;,&quot;startArrow&quot;:&quot;none&quot;,&quot;endArrow&quot;:&quot;none&quot;};" vertex="1" parent="soDfp3RJkLPu1pMC7LP1-55">
          <mxGeometry x="140" y="60" width="120" height="40" as="geometry" />
        </mxCell>
        <mxCell id="soDfp3RJkLPu1pMC7LP1-58" value="Legal" style="whiteSpace=wrap;html=1;treeFolding=1;treeMoving=1;newEdgeStyle={&quot;edgeStyle&quot;:&quot;elbowEdgeStyle&quot;,&quot;startArrow&quot;:&quot;none&quot;,&quot;endArrow&quot;:&quot;none&quot;};" vertex="1" parent="soDfp3RJkLPu1pMC7LP1-55">
          <mxGeometry x="110" y="140" width="60" height="40" as="geometry" />
        </mxCell>
        <mxCell id="soDfp3RJkLPu1pMC7LP1-62" style="edgeStyle=elbowEdgeStyle;rounded=0;orthogonalLoop=1;jettySize=auto;html=1;startArrow=none;endArrow=none;exitX=0.5;exitY=0;exitDx=0;exitDy=0;entryX=0.25;entryY=1;entryDx=0;entryDy=0;" edge="1" parent="soDfp3RJkLPu1pMC7LP1-55" source="soDfp3RJkLPu1pMC7LP1-59" target="soDfp3RJkLPu1pMC7LP1-57">
          <mxGeometry relative="1" as="geometry" />
        </mxCell>
        <mxCell id="soDfp3RJkLPu1pMC7LP1-59" value="Finance" style="whiteSpace=wrap;html=1;treeFolding=1;treeMoving=1;newEdgeStyle={&quot;edgeStyle&quot;:&quot;elbowEdgeStyle&quot;,&quot;startArrow&quot;:&quot;none&quot;,&quot;endArrow&quot;:&quot;none&quot;};" vertex="1" parent="soDfp3RJkLPu1pMC7LP1-55">
          <mxGeometry x="30" y="140" width="60" height="40" as="geometry" />
        </mxCell>
        <mxCell id="soDfp3RJkLPu1pMC7LP1-63" style="edgeStyle=elbowEdgeStyle;rounded=0;orthogonalLoop=1;jettySize=auto;html=1;startArrow=none;endArrow=none;exitX=0.5;exitY=0;exitDx=0;exitDy=0;entryX=0.75;entryY=1;entryDx=0;entryDy=0;" edge="1" parent="soDfp3RJkLPu1pMC7LP1-55" source="soDfp3RJkLPu1pMC7LP1-60" target="soDfp3RJkLPu1pMC7LP1-57">
          <mxGeometry relative="1" as="geometry" />
        </mxCell>
        <mxCell id="soDfp3RJkLPu1pMC7LP1-60" value="Advertising" style="whiteSpace=wrap;html=1;treeFolding=1;treeMoving=1;newEdgeStyle={&quot;edgeStyle&quot;:&quot;elbowEdgeStyle&quot;,&quot;startArrow&quot;:&quot;none&quot;,&quot;endArrow&quot;:&quot;none&quot;};" vertex="1" parent="soDfp3RJkLPu1pMC7LP1-55">
          <mxGeometry x="190" y="140" width="80" height="40" as="geometry" />
        </mxCell>
        <mxCell id="soDfp3RJkLPu1pMC7LP1-64" style="edgeStyle=elbowEdgeStyle;rounded=0;orthogonalLoop=1;jettySize=auto;html=1;startArrow=none;endArrow=none;exitX=0.5;exitY=0;exitDx=0;exitDy=0;entryX=0.917;entryY=1;entryDx=0;entryDy=0;entryPerimeter=0;elbow=vertical;" edge="1" parent="soDfp3RJkLPu1pMC7LP1-55" source="soDfp3RJkLPu1pMC7LP1-61" target="soDfp3RJkLPu1pMC7LP1-57">
          <mxGeometry relative="1" as="geometry">
            <mxPoint x="260" y="120" as="targetPoint" />
            <Array as="points">
              <mxPoint x="280" y="120" />
            </Array>
          </mxGeometry>
        </mxCell>
        <mxCell id="soDfp3RJkLPu1pMC7LP1-61" value="HR" style="whiteSpace=wrap;html=1;treeFolding=1;treeMoving=1;newEdgeStyle={&quot;edgeStyle&quot;:&quot;elbowEdgeStyle&quot;,&quot;startArrow&quot;:&quot;none&quot;,&quot;endArrow&quot;:&quot;none&quot;};" vertex="1" parent="soDfp3RJkLPu1pMC7LP1-55">
          <mxGeometry x="290" y="140" width="70" height="40" as="geometry" />
        </mxCell>
        <mxCell id="soDfp3RJkLPu1pMC7LP1-65" value="Research Outreach" style="swimlane;startSize=20;horizontal=1;containerType=tree;newEdgeStyle={&quot;edgeStyle&quot;:&quot;elbowEdgeStyle&quot;,&quot;startArrow&quot;:&quot;none&quot;,&quot;endArrow&quot;:&quot;none&quot;};" vertex="1" parent="1">
          <mxGeometry x="30" y="310" width="430" height="350" as="geometry" />
        </mxCell>
        <mxCell id="soDfp3RJkLPu1pMC7LP1-66" value="" style="edgeStyle=elbowEdgeStyle;elbow=vertical;sourcePerimeterSpacing=0;targetPerimeterSpacing=0;startArrow=none;endArrow=none;rounded=0;curved=0;" edge="1" parent="soDfp3RJkLPu1pMC7LP1-65" source="soDfp3RJkLPu1pMC7LP1-68" target="soDfp3RJkLPu1pMC7LP1-69">
          <mxGeometry relative="1" as="geometry" />
        </mxCell>
        <mxCell id="soDfp3RJkLPu1pMC7LP1-67" value="" style="edgeStyle=elbowEdgeStyle;elbow=vertical;sourcePerimeterSpacing=0;targetPerimeterSpacing=0;startArrow=none;endArrow=none;rounded=0;curved=0;" edge="1" parent="soDfp3RJkLPu1pMC7LP1-65" source="soDfp3RJkLPu1pMC7LP1-68" target="soDfp3RJkLPu1pMC7LP1-70">
          <mxGeometry relative="1" as="geometry" />
        </mxCell>
        <UserObject label="Research Board" treeRoot="1" id="soDfp3RJkLPu1pMC7LP1-68">
          <mxCell style="whiteSpace=wrap;html=1;align=center;treeFolding=1;treeMoving=1;newEdgeStyle={&quot;edgeStyle&quot;:&quot;elbowEdgeStyle&quot;,&quot;startArrow&quot;:&quot;none&quot;,&quot;endArrow&quot;:&quot;none&quot;};" vertex="1" parent="soDfp3RJkLPu1pMC7LP1-65">
            <mxGeometry x="155" y="30" width="120" height="60" as="geometry" />
          </mxCell>
        </UserObject>
        <mxCell id="soDfp3RJkLPu1pMC7LP1-69" value="Reviewers" style="whiteSpace=wrap;html=1;align=center;verticalAlign=middle;treeFolding=1;treeMoving=1;newEdgeStyle={&quot;edgeStyle&quot;:&quot;elbowEdgeStyle&quot;,&quot;startArrow&quot;:&quot;none&quot;,&quot;endArrow&quot;:&quot;none&quot;};" vertex="1" parent="soDfp3RJkLPu1pMC7LP1-65">
          <mxGeometry x="55" y="140" width="70" height="40" as="geometry" />
        </mxCell>
        <mxCell id="soDfp3RJkLPu1pMC7LP1-70" value="Emissary" style="whiteSpace=wrap;html=1;align=center;verticalAlign=middle;treeFolding=1;treeMoving=1;newEdgeStyle={&quot;edgeStyle&quot;:&quot;elbowEdgeStyle&quot;,&quot;startArrow&quot;:&quot;none&quot;,&quot;endArrow&quot;:&quot;none&quot;};" vertex="1" parent="soDfp3RJkLPu1pMC7LP1-65">
          <mxGeometry x="175" y="140" width="80" height="40" as="geometry" />
        </mxCell>
        <mxCell id="soDfp3RJkLPu1pMC7LP1-71" value="Funding" style="whiteSpace=wrap;html=1;align=center;verticalAlign=middle;treeFolding=1;treeMoving=1;newEdgeStyle={&quot;edgeStyle&quot;:&quot;elbowEdgeStyle&quot;,&quot;startArrow&quot;:&quot;none&quot;,&quot;endArrow&quot;:&quot;none&quot;};" vertex="1" parent="soDfp3RJkLPu1pMC7LP1-65">
          <mxGeometry x="280" y="140" width="80" height="40" as="geometry" />
        </mxCell>
        <mxCell id="soDfp3RJkLPu1pMC7LP1-72" value="" style="edgeStyle=elbowEdgeStyle;elbow=vertical;sourcePerimeterSpacing=0;targetPerimeterSpacing=0;startArrow=none;endArrow=none;rounded=0;curved=0;" edge="1" target="soDfp3RJkLPu1pMC7LP1-71" parent="soDfp3RJkLPu1pMC7LP1-65">
          <mxGeometry relative="1" as="geometry">
            <mxPoint x="220" y="90" as="sourcePoint" />
          </mxGeometry>
        </mxCell>
        <mxCell id="soDfp3RJkLPu1pMC7LP1-79" style="edgeStyle=elbowEdgeStyle;rounded=0;orthogonalLoop=1;jettySize=auto;html=1;startArrow=none;endArrow=none;entryX=0.5;entryY=1;entryDx=0;entryDy=0;" edge="1" parent="soDfp3RJkLPu1pMC7LP1-65" source="soDfp3RJkLPu1pMC7LP1-73" target="soDfp3RJkLPu1pMC7LP1-70">
          <mxGeometry relative="1" as="geometry" />
        </mxCell>
        <mxCell id="soDfp3RJkLPu1pMC7LP1-73" value="Primary Investigator" style="whiteSpace=wrap;html=1;align=center;verticalAlign=middle;treeFolding=1;treeMoving=1;newEdgeStyle={&quot;edgeStyle&quot;:&quot;elbowEdgeStyle&quot;,&quot;startArrow&quot;:&quot;none&quot;,&quot;endArrow&quot;:&quot;none&quot;};" vertex="1" parent="soDfp3RJkLPu1pMC7LP1-65">
          <mxGeometry x="175" y="190" width="80" height="40" as="geometry" />
        </mxCell>
        <mxCell id="soDfp3RJkLPu1pMC7LP1-78" style="edgeStyle=elbowEdgeStyle;rounded=0;orthogonalLoop=1;jettySize=auto;html=1;startArrow=none;endArrow=none;entryX=0.5;entryY=1;entryDx=0;entryDy=0;" edge="1" parent="soDfp3RJkLPu1pMC7LP1-65" source="soDfp3RJkLPu1pMC7LP1-74" target="soDfp3RJkLPu1pMC7LP1-73">
          <mxGeometry relative="1" as="geometry" />
        </mxCell>
        <mxCell id="soDfp3RJkLPu1pMC7LP1-74" value="Research Team" style="whiteSpace=wrap;html=1;align=center;verticalAlign=middle;treeFolding=1;treeMoving=1;newEdgeStyle={&quot;edgeStyle&quot;:&quot;elbowEdgeStyle&quot;,&quot;startArrow&quot;:&quot;none&quot;,&quot;endArrow&quot;:&quot;none&quot;};" vertex="1" parent="soDfp3RJkLPu1pMC7LP1-65">
          <mxGeometry x="175" y="240" width="80" height="40" as="geometry" />
        </mxCell>
        <mxCell id="soDfp3RJkLPu1pMC7LP1-84" style="edgeStyle=elbowEdgeStyle;rounded=0;orthogonalLoop=1;jettySize=auto;html=1;startArrow=none;endArrow=none;entryX=0.5;entryY=1;entryDx=0;entryDy=0;" edge="1" parent="soDfp3RJkLPu1pMC7LP1-65" source="soDfp3RJkLPu1pMC7LP1-75" target="soDfp3RJkLPu1pMC7LP1-71">
          <mxGeometry relative="1" as="geometry" />
        </mxCell>
        <mxCell id="soDfp3RJkLPu1pMC7LP1-75" value="Grant Application writer" style="whiteSpace=wrap;html=1;align=center;verticalAlign=middle;treeFolding=1;treeMoving=1;newEdgeStyle={&quot;edgeStyle&quot;:&quot;elbowEdgeStyle&quot;,&quot;startArrow&quot;:&quot;none&quot;,&quot;endArrow&quot;:&quot;none&quot;};" vertex="1" parent="soDfp3RJkLPu1pMC7LP1-65">
          <mxGeometry x="280" y="240" width="80" height="40" as="geometry" />
        </mxCell>
        <mxCell id="soDfp3RJkLPu1pMC7LP1-87" style="edgeStyle=elbowEdgeStyle;rounded=0;orthogonalLoop=1;jettySize=auto;html=1;startArrow=none;endArrow=none;entryX=0.5;entryY=1;entryDx=0;entryDy=0;" edge="1" parent="soDfp3RJkLPu1pMC7LP1-65" source="soDfp3RJkLPu1pMC7LP1-77" target="soDfp3RJkLPu1pMC7LP1-69">
          <mxGeometry relative="1" as="geometry" />
        </mxCell>
        <mxCell id="soDfp3RJkLPu1pMC7LP1-77" value="Publishing" style="whiteSpace=wrap;html=1;align=center;verticalAlign=middle;treeFolding=1;treeMoving=1;newEdgeStyle={&quot;edgeStyle&quot;:&quot;elbowEdgeStyle&quot;,&quot;startArrow&quot;:&quot;none&quot;,&quot;endArrow&quot;:&quot;none&quot;};" vertex="1" parent="soDfp3RJkLPu1pMC7LP1-65">
          <mxGeometry x="50" y="240" width="80" height="40" as="geometry" />
        </mxCell>
        <mxCell id="soDfp3RJkLPu1pMC7LP1-90" value="&lt;h1&gt;&lt;font face=&quot;Times New Roman&quot;&gt;The process from idea to reality:&lt;/font&gt;&lt;/h1&gt;&lt;p&gt;&lt;/p&gt;&lt;ol&gt;&lt;li&gt;&lt;font face=&quot;Times New Roman&quot;&gt;Someone has an idea.&lt;/font&gt;&lt;/li&gt;&lt;li&gt;&lt;font face=&quot;Times New Roman&quot;&gt;They hear about Magnus.&lt;/font&gt;&lt;/li&gt;&lt;li&gt;&lt;font face=&quot;Times New Roman&quot;&gt;They approach their local emissary with the idea.&lt;/font&gt;&lt;/li&gt;&lt;li&gt;&lt;font face=&quot;Times New Roman&quot;&gt;The Emissary instructs them how to make an abstract for the Idea.&lt;/font&gt;&lt;/li&gt;&lt;li&gt;&lt;font face=&quot;Times New Roman&quot;&gt;Once the abstract is complete, and the emissary finds it has merit, the abstract is sent to the reviewers for a preliminary assessment.&lt;/font&gt;&lt;/li&gt;&lt;li&gt;&lt;font face=&quot;Times New Roman&quot;&gt;Once the reviewers assess the abstract, they match the required materials with both the people and resources at hand.&amp;nbsp;&lt;/font&gt;&lt;/li&gt;&lt;li&gt;&lt;font face=&quot;Times New Roman&quot;&gt;The assessment and list of available resources is delivered to the emissary.&lt;/font&gt;&lt;/li&gt;&lt;li&gt;&lt;font face=&quot;Times New Roman&quot;&gt;The Emissary hands the data from the reviewer to the grant writer.&lt;/font&gt;&lt;/li&gt;&lt;li&gt;&lt;font face=&quot;Times New Roman&quot;&gt;the grant writer writes the grant application and submits it to the appropriate organizations.&lt;/font&gt;&lt;/li&gt;&lt;li&gt;&lt;font face=&quot;Times New Roman&quot;&gt;The funding is granted.&lt;/font&gt;&lt;/li&gt;&lt;li&gt;&lt;font face=&quot;Times New Roman&quot;&gt;The emissary puts the person (now assigned as Primary Investigator(PI)) in contact with the appropriate people. eg. National labs/international collaborators.&lt;/font&gt;&lt;/li&gt;&lt;li&gt;&lt;font face=&quot;Times New Roman&quot;&gt;The PI assembles a research team.&lt;/font&gt;&lt;/li&gt;&lt;li&gt;&lt;font face=&quot;Times New Roman&quot;&gt;The research begins.&lt;/font&gt;&lt;/li&gt;&lt;li&gt;&lt;font face=&quot;Times New Roman&quot;&gt;The Local Emissary makes regular Audits to ensure that both deliverables are being completed, and the research is on track.&lt;/font&gt;&lt;/li&gt;&lt;li&gt;&lt;font face=&quot;Times New Roman&quot;&gt;Once the initial research project is completed, and all applicable abstracts have been written, the Emissary sends the abstracts to the Reviewers.&lt;/font&gt;&lt;/li&gt;&lt;li&gt;&lt;font face=&quot;Times New Roman&quot;&gt;If the reviewers are satisfied, they send the abstracts to the appropriate publishers.&lt;/font&gt;&lt;/li&gt;&lt;li&gt;&lt;font face=&quot;Times New Roman&quot;&gt;Rinse and repeat.&lt;/font&gt;&lt;/li&gt;&lt;/ol&gt;&lt;p&gt;&lt;/p&gt;" style="text;html=1;strokeColor=none;fillColor=none;spacing=5;spacingTop=-20;whiteSpace=wrap;overflow=hidden;rounded=0;" vertex="1" parent="1">
          <mxGeometry x="490" y="70" width="350" height="590" as="geometry" />
        </mxCell>
      </root>
    </mxGraphModel>
  </diagram>
</mxfile>
